<?xml version="1.0" encoding="UTF-8" standalone="no"?>
<!DOCTYPE svg PUBLIC "-//W3C//DTD SVG 1.1//EN"
 "http://www.w3.org/Graphics/SVG/1.1/DTD/svg11.dtd">
<!-- Generated by graphviz version 12.1.2 (20240928.0832)
 -->
<!-- Title: G Pages: 1 -->
<svg width="323pt" height="151pt"
 viewBox="0.00 0.00 322.95 150.95" xmlns="http://www.w3.org/2000/svg" xmlns:xlink="http://www.w3.org/1999/xlink">
<g id="graph0" class="graph" transform="scale(1 1) rotate(0) translate(21.6 129.35)">
<title>G</title>
<polygon fill="#111111" stroke="none" points="-21.6,21.6 -21.6,-129.35 301.35,-129.35 301.35,21.6 -21.6,21.6"/>
<!-- argued.js -->
<g id="node1" class="node">
<title>argued.js</title>
<path fill="none" stroke="#c6c5fe" d="M63.58,-65.75C63.58,-65.75 7.92,-65.75 7.92,-65.75 3.96,-65.75 0,-61.79 0,-57.83 0,-57.83 0,-49.92 0,-49.92 0,-45.96 3.96,-42 7.92,-42 7.92,-42 63.58,-42 63.58,-42 67.54,-42 71.5,-45.96 71.5,-49.92 71.5,-49.92 71.5,-57.83 71.5,-57.83 71.5,-61.79 67.54,-65.75 63.58,-65.75"/>
<text text-anchor="middle" x="35.75" y="-48.45" font-family="Arial" font-size="14.00" fill="#c6c5fe">argued.js</text>
</g>
<!-- builder.js -->
<g id="node2" class="node">
<title>builder.js</title>
<path fill="none" stroke="#c6c5fe" d="M168.83,-65.75C168.83,-65.75 115.42,-65.75 115.42,-65.75 111.46,-65.75 107.5,-61.79 107.5,-57.83 107.5,-57.83 107.5,-49.92 107.5,-49.92 107.5,-45.96 111.46,-42 115.42,-42 115.42,-42 168.83,-42 168.83,-42 172.79,-42 176.75,-45.96 176.75,-49.92 176.75,-49.92 176.75,-57.83 176.75,-57.83 176.75,-61.79 172.79,-65.75 168.83,-65.75"/>
<text text-anchor="middle" x="142.12" y="-48.45" font-family="Arial" font-size="14.00" fill="#c6c5fe">builder.js</text>
</g>
<!-- argued.js&#45;&gt;builder.js -->
<g id="edge1" class="edge">
<title>argued.js&#45;&gt;builder.js</title>
<path fill="none" stroke="#757575" d="M71.8,-53.88C79.44,-53.88 87.63,-53.88 95.61,-53.88"/>
<polygon fill="#757575" stroke="#757575" points="95.54,-57.38 105.54,-53.88 95.54,-50.38 95.54,-57.38"/>
</g>
<!-- help.js -->
<g id="node3" class="node">
<title>help.js</title>
<path fill="none" stroke="#cfffac" d="M265.83,-107.75C265.83,-107.75 226.67,-107.75 226.67,-107.75 222.71,-107.75 218.75,-103.79 218.75,-99.83 218.75,-99.83 218.75,-91.92 218.75,-91.92 218.75,-87.96 222.71,-84 226.67,-84 226.67,-84 265.83,-84 265.83,-84 269.79,-84 273.75,-87.96 273.75,-91.92 273.75,-91.92 273.75,-99.83 273.75,-99.83 273.75,-103.79 269.79,-107.75 265.83,-107.75"/>
<text text-anchor="middle" x="246.25" y="-90.45" font-family="Arial" font-size="14.00" fill="#cfffac">help.js</text>
</g>
<!-- argued.js&#45;&gt;help.js -->
<g id="edge2" class="edge">
<title>argued.js&#45;&gt;help.js</title>
<path fill="none" stroke="#757575" d="M71.77,-65.3C83.09,-68.72 95.75,-72.25 107.5,-74.88 140.86,-82.33 179.37,-87.96 207.17,-91.5"/>
<polygon fill="#757575" stroke="#757575" points="206.53,-94.94 216.88,-92.7 207.39,-88 206.53,-94.94"/>
</g>
<!-- parser.js -->
<g id="node4" class="node">
<title>parser.js</title>
<path fill="none" stroke="#cfffac" d="M271.83,-23.75C271.83,-23.75 220.67,-23.75 220.67,-23.75 216.71,-23.75 212.75,-19.79 212.75,-15.83 212.75,-15.83 212.75,-7.92 212.75,-7.92 212.75,-3.96 216.71,0 220.67,0 220.67,0 271.83,0 271.83,0 275.79,0 279.75,-3.96 279.75,-7.92 279.75,-7.92 279.75,-15.83 279.75,-15.83 279.75,-19.79 275.79,-23.75 271.83,-23.75"/>
<text text-anchor="middle" x="246.25" y="-6.45" font-family="Arial" font-size="14.00" fill="#cfffac">parser.js</text>
</g>
<!-- argued.js&#45;&gt;parser.js -->
<g id="edge3" class="edge">
<title>argued.js&#45;&gt;parser.js</title>
<path fill="none" stroke="#757575" d="M71.77,-42.45C83.09,-39.03 95.75,-35.5 107.5,-32.88 138.59,-25.93 174.14,-20.57 201.34,-17.01"/>
<polygon fill="#757575" stroke="#757575" points="201.47,-20.52 210.95,-15.78 200.59,-13.57 201.47,-20.52"/>
</g>
<!-- builder.js&#45;&gt;help.js -->
<g id="edge4" class="edge">
<title>builder.js&#45;&gt;help.js</title>
<path fill="none" stroke="#757575" d="M173.21,-66.25C184.09,-70.72 196.51,-75.83 207.93,-80.53"/>
<polygon fill="#757575" stroke="#757575" points="206.52,-83.73 217.1,-84.3 209.18,-77.26 206.52,-83.73"/>
</g>
<!-- builder.js&#45;&gt;parser.js -->
<g id="edge6" class="edge">
<title>builder.js&#45;&gt;parser.js</title>
<path fill="none" stroke="#757575" d="M173.21,-41.5C183.19,-37.4 194.45,-32.77 205.06,-28.4"/>
<polygon fill="#757575" stroke="#757575" points="206.06,-31.78 213.98,-24.74 203.4,-25.3 206.06,-31.78"/>
</g>
<!-- log.js -->
<g id="node5" class="node">
<title>log.js</title>
<path fill="none" stroke="#cfffac" d="M265.33,-65.75C265.33,-65.75 227.17,-65.75 227.17,-65.75 223.21,-65.75 219.25,-61.79 219.25,-57.83 219.25,-57.83 219.25,-49.92 219.25,-49.92 219.25,-45.96 223.21,-42 227.17,-42 227.17,-42 265.33,-42 265.33,-42 269.29,-42 273.25,-45.96 273.25,-49.92 273.25,-49.92 273.25,-57.83 273.25,-57.83 273.25,-61.79 269.29,-65.75 265.33,-65.75"/>
<text text-anchor="middle" x="246.25" y="-48.45" font-family="Arial" font-size="14.00" fill="#cfffac">log.js</text>
</g>
<!-- builder.js&#45;&gt;log.js -->
<g id="edge5" class="edge">
<title>builder.js&#45;&gt;log.js</title>
<path fill="none" stroke="#757575" d="M177.13,-53.88C186.89,-53.88 197.59,-53.88 207.55,-53.88"/>
<polygon fill="#757575" stroke="#757575" points="207.31,-57.38 217.31,-53.88 207.31,-50.38 207.31,-57.38"/>
</g>
</g>
</svg>
