<?xml version="1.0" encoding="UTF-8" standalone="no"?>
<!DOCTYPE svg PUBLIC "-//W3C//DTD SVG 1.1//EN"
 "http://www.w3.org/Graphics/SVG/1.1/DTD/svg11.dtd">
<!-- Generated by graphviz version 12.1.2 (20240928.0832)
 -->
<!-- Title: G Pages: 1 -->
<svg width="343pt" height="151pt"
 viewBox="0.00 0.00 343.20 150.95" xmlns="http://www.w3.org/2000/svg" xmlns:xlink="http://www.w3.org/1999/xlink">
<g id="graph0" class="graph" transform="scale(1 1) rotate(0) translate(21.6 129.35)">
<title>G</title>
<polygon fill="#111111" stroke="none" points="-21.6,21.6 -21.6,-129.35 321.6,-129.35 321.6,21.6 -21.6,21.6"/>
<!-- altercation.js -->
<g id="node1" class="node">
<title>altercation.js</title>
<path fill="none" stroke="#c6c5fe" d="M83.83,-65.75C83.83,-65.75 7.92,-65.75 7.92,-65.75 3.96,-65.75 0,-61.79 0,-57.83 0,-57.83 0,-49.92 0,-49.92 0,-45.96 3.96,-42 7.92,-42 7.92,-42 83.83,-42 83.83,-42 87.79,-42 91.75,-45.96 91.75,-49.92 91.75,-49.92 91.75,-57.83 91.75,-57.83 91.75,-61.79 87.79,-65.75 83.83,-65.75"/>
<text text-anchor="middle" x="45.88" y="-48.45" font-family="Arial" font-size="14.00" fill="#c6c5fe">altercation.js</text>
</g>
<!-- builder.js -->
<g id="node2" class="node">
<title>builder.js</title>
<path fill="none" stroke="#c6c5fe" d="M189.08,-65.75C189.08,-65.75 135.67,-65.75 135.67,-65.75 131.71,-65.75 127.75,-61.79 127.75,-57.83 127.75,-57.83 127.75,-49.92 127.75,-49.92 127.75,-45.96 131.71,-42 135.67,-42 135.67,-42 189.08,-42 189.08,-42 193.04,-42 197,-45.96 197,-49.92 197,-49.92 197,-57.83 197,-57.83 197,-61.79 193.04,-65.75 189.08,-65.75"/>
<text text-anchor="middle" x="162.38" y="-48.45" font-family="Arial" font-size="14.00" fill="#c6c5fe">builder.js</text>
</g>
<!-- altercation.js&#45;&gt;builder.js -->
<g id="edge1" class="edge">
<title>altercation.js&#45;&gt;builder.js</title>
<path fill="none" stroke="#757575" d="M92.13,-53.88C100.02,-53.88 108.24,-53.88 116.13,-53.88"/>
<polygon fill="#757575" stroke="#757575" points="115.89,-57.38 125.89,-53.88 115.89,-50.38 115.89,-57.38"/>
</g>
<!-- help.js -->
<g id="node3" class="node">
<title>help.js</title>
<path fill="none" stroke="#cfffac" d="M286.08,-107.75C286.08,-107.75 246.92,-107.75 246.92,-107.75 242.96,-107.75 239,-103.79 239,-99.83 239,-99.83 239,-91.92 239,-91.92 239,-87.96 242.96,-84 246.92,-84 246.92,-84 286.08,-84 286.08,-84 290.04,-84 294,-87.96 294,-91.92 294,-91.92 294,-99.83 294,-99.83 294,-103.79 290.04,-107.75 286.08,-107.75"/>
<text text-anchor="middle" x="266.5" y="-90.45" font-family="Arial" font-size="14.00" fill="#cfffac">help.js</text>
</g>
<!-- altercation.js&#45;&gt;help.js -->
<g id="edge2" class="edge">
<title>altercation.js&#45;&gt;help.js</title>
<path fill="none" stroke="#757575" d="M90.76,-66.14C102.7,-69.24 115.67,-72.39 127.75,-74.88 161.24,-81.76 199.73,-87.44 227.49,-91.15"/>
<polygon fill="#757575" stroke="#757575" points="226.82,-94.59 237.19,-92.42 227.73,-87.65 226.82,-94.59"/>
</g>
<!-- parser.js -->
<g id="node4" class="node">
<title>parser.js</title>
<path fill="none" stroke="#cfffac" d="M292.08,-23.75C292.08,-23.75 240.92,-23.75 240.92,-23.75 236.96,-23.75 233,-19.79 233,-15.83 233,-15.83 233,-7.92 233,-7.92 233,-3.96 236.96,0 240.92,0 240.92,0 292.08,0 292.08,0 296.04,0 300,-3.96 300,-7.92 300,-7.92 300,-15.83 300,-15.83 300,-19.79 296.04,-23.75 292.08,-23.75"/>
<text text-anchor="middle" x="266.5" y="-6.45" font-family="Arial" font-size="14.00" fill="#cfffac">parser.js</text>
</g>
<!-- altercation.js&#45;&gt;parser.js -->
<g id="edge3" class="edge">
<title>altercation.js&#45;&gt;parser.js</title>
<path fill="none" stroke="#757575" d="M90.76,-41.61C102.7,-38.51 115.67,-35.36 127.75,-32.88 158.95,-26.46 194.51,-21.09 221.68,-17.39"/>
<polygon fill="#757575" stroke="#757575" points="221.82,-20.9 231.27,-16.1 220.89,-13.96 221.82,-20.9"/>
</g>
<!-- builder.js&#45;&gt;help.js -->
<g id="edge4" class="edge">
<title>builder.js&#45;&gt;help.js</title>
<path fill="none" stroke="#757575" d="M193.46,-66.25C204.34,-70.72 216.76,-75.83 228.18,-80.53"/>
<polygon fill="#757575" stroke="#757575" points="226.77,-83.73 237.35,-84.3 229.43,-77.26 226.77,-83.73"/>
</g>
<!-- builder.js&#45;&gt;parser.js -->
<g id="edge6" class="edge">
<title>builder.js&#45;&gt;parser.js</title>
<path fill="none" stroke="#757575" d="M193.46,-41.5C203.44,-37.4 214.7,-32.77 225.31,-28.4"/>
<polygon fill="#757575" stroke="#757575" points="226.31,-31.78 234.23,-24.74 223.65,-25.3 226.31,-31.78"/>
</g>
<!-- log.js -->
<g id="node5" class="node">
<title>log.js</title>
<path fill="none" stroke="#cfffac" d="M285.58,-65.75C285.58,-65.75 247.42,-65.75 247.42,-65.75 243.46,-65.75 239.5,-61.79 239.5,-57.83 239.5,-57.83 239.5,-49.92 239.5,-49.92 239.5,-45.96 243.46,-42 247.42,-42 247.42,-42 285.58,-42 285.58,-42 289.54,-42 293.5,-45.96 293.5,-49.92 293.5,-49.92 293.5,-57.83 293.5,-57.83 293.5,-61.79 289.54,-65.75 285.58,-65.75"/>
<text text-anchor="middle" x="266.5" y="-48.45" font-family="Arial" font-size="14.00" fill="#cfffac">log.js</text>
</g>
<!-- builder.js&#45;&gt;log.js -->
<g id="edge5" class="edge">
<title>builder.js&#45;&gt;log.js</title>
<path fill="none" stroke="#757575" d="M197.38,-53.88C207.14,-53.88 217.84,-53.88 227.8,-53.88"/>
<polygon fill="#757575" stroke="#757575" points="227.56,-57.38 237.56,-53.88 227.56,-50.38 227.56,-57.38"/>
</g>
</g>
</svg>
